<mxfile host="app.diagrams.net" modified="2024-06-28T07:03:37.547Z" agent="Mozilla/5.0 (Windows NT 10.0; Win64; x64) AppleWebKit/537.36 (KHTML, like Gecko) Chrome/126.0.0.0 Safari/537.36" etag="_Wbl9T5vmXF7TZ_u4XC5" version="24.6.4" type="device">
  <diagram name="Page-1" id="aG2_OoBNvHqQvxG8nb_x">
    <mxGraphModel dx="1100" dy="543" grid="1" gridSize="10" guides="1" tooltips="1" connect="1" arrows="1" fold="1" page="1" pageScale="1" pageWidth="850" pageHeight="1100" math="0" shadow="0">
      <root>
        <mxCell id="0" />
        <mxCell id="1" parent="0" />
        <mxCell id="O5RSDXi4QWW96VrOZAca-1" value="Start" style="strokeWidth=2;html=1;shape=mxgraph.flowchart.terminator;whiteSpace=wrap;" parent="1" vertex="1">
          <mxGeometry x="368" y="10" width="115" height="57.5" as="geometry" />
        </mxCell>
        <mxCell id="O5RSDXi4QWW96VrOZAca-2" value="Input amount" style="html=1;strokeWidth=2;shape=manualInput;whiteSpace=wrap;rounded=1;size=13;arcSize=8;" parent="1" vertex="1">
          <mxGeometry x="375" y="110" width="100" height="50" as="geometry" />
        </mxCell>
        <mxCell id="O5RSDXi4QWW96VrOZAca-3" value="Amount is data type of number&amp;nbsp;&lt;div&gt;&amp;amp; amount &amp;gt; 0 ?&lt;/div&gt;" style="strokeWidth=2;html=1;shape=mxgraph.flowchart.decision;whiteSpace=wrap;" parent="1" vertex="1">
          <mxGeometry x="325" y="190" width="200" height="200" as="geometry" />
        </mxCell>
        <mxCell id="O5RSDXi4QWW96VrOZAca-4" value="New Balance = Balance - amount" style="rounded=0;whiteSpace=wrap;html=1;" parent="1" vertex="1">
          <mxGeometry x="365" y="610" width="120" height="60" as="geometry" />
        </mxCell>
        <mxCell id="O5RSDXi4QWW96VrOZAca-5" value="&lt;div&gt;Output&lt;/div&gt;new Balance" style="shape=parallelogram;perimeter=parallelogramPerimeter;whiteSpace=wrap;html=1;fixedSize=1;" parent="1" vertex="1">
          <mxGeometry x="365" y="700" width="120" height="60" as="geometry" />
        </mxCell>
        <mxCell id="O5RSDXi4QWW96VrOZAca-6" value="End" style="strokeWidth=2;html=1;shape=mxgraph.flowchart.terminator;whiteSpace=wrap;" parent="1" vertex="1">
          <mxGeometry x="368" y="800" width="115" height="57.5" as="geometry" />
        </mxCell>
        <mxCell id="O5RSDXi4QWW96VrOZAca-7" value="" style="endArrow=classic;html=1;rounded=0;exitX=0.5;exitY=1;exitDx=0;exitDy=0;exitPerimeter=0;entryX=0.5;entryY=0;entryDx=0;entryDy=0;" parent="1" source="O5RSDXi4QWW96VrOZAca-1" target="O5RSDXi4QWW96VrOZAca-2" edge="1">
          <mxGeometry width="50" height="50" relative="1" as="geometry">
            <mxPoint x="540" y="130" as="sourcePoint" />
            <mxPoint x="590" y="80" as="targetPoint" />
          </mxGeometry>
        </mxCell>
        <mxCell id="O5RSDXi4QWW96VrOZAca-8" value="" style="endArrow=classic;html=1;rounded=0;exitX=0.5;exitY=1;exitDx=0;exitDy=0;entryX=0.5;entryY=0;entryDx=0;entryDy=0;entryPerimeter=0;" parent="1" source="O5RSDXi4QWW96VrOZAca-2" target="O5RSDXi4QWW96VrOZAca-3" edge="1">
          <mxGeometry width="50" height="50" relative="1" as="geometry">
            <mxPoint x="500" y="180" as="sourcePoint" />
            <mxPoint x="550" y="130" as="targetPoint" />
          </mxGeometry>
        </mxCell>
        <mxCell id="O5RSDXi4QWW96VrOZAca-10" value="" style="endArrow=classic;html=1;rounded=0;exitX=0.5;exitY=1;exitDx=0;exitDy=0;entryX=0.5;entryY=0;entryDx=0;entryDy=0;" parent="1" source="O5RSDXi4QWW96VrOZAca-4" target="O5RSDXi4QWW96VrOZAca-5" edge="1">
          <mxGeometry width="50" height="50" relative="1" as="geometry">
            <mxPoint x="460" y="700" as="sourcePoint" />
            <mxPoint x="510" y="650" as="targetPoint" />
          </mxGeometry>
        </mxCell>
        <mxCell id="O5RSDXi4QWW96VrOZAca-11" value="" style="endArrow=classic;html=1;rounded=0;exitX=0.5;exitY=1;exitDx=0;exitDy=0;entryX=0.5;entryY=0;entryDx=0;entryDy=0;entryPerimeter=0;" parent="1" source="O5RSDXi4QWW96VrOZAca-5" target="O5RSDXi4QWW96VrOZAca-6" edge="1">
          <mxGeometry width="50" height="50" relative="1" as="geometry">
            <mxPoint x="540" y="760" as="sourcePoint" />
            <mxPoint x="590" y="710" as="targetPoint" />
          </mxGeometry>
        </mxCell>
        <mxCell id="O5RSDXi4QWW96VrOZAca-12" value="Output&lt;div&gt;Amount must number and positive&lt;/div&gt;" style="shape=parallelogram;perimeter=parallelogramPerimeter;whiteSpace=wrap;html=1;fixedSize=1;" parent="1" vertex="1">
          <mxGeometry x="45" y="190" width="210" height="60" as="geometry" />
        </mxCell>
        <mxCell id="O5RSDXi4QWW96VrOZAca-15" value="" style="endArrow=classic;html=1;rounded=0;entryX=0.5;entryY=1;entryDx=0;entryDy=0;exitX=0;exitY=0.5;exitDx=0;exitDy=0;exitPerimeter=0;" parent="1" source="O5RSDXi4QWW96VrOZAca-3" target="O5RSDXi4QWW96VrOZAca-12" edge="1">
          <mxGeometry width="50" height="50" relative="1" as="geometry">
            <mxPoint x="310" y="290" as="sourcePoint" />
            <mxPoint x="200" y="250" as="targetPoint" />
            <Array as="points">
              <mxPoint x="150" y="290" />
            </Array>
          </mxGeometry>
        </mxCell>
        <mxCell id="O5RSDXi4QWW96VrOZAca-16" value="" style="endArrow=classic;html=1;rounded=0;exitX=0.5;exitY=0;exitDx=0;exitDy=0;entryX=0;entryY=0.5;entryDx=0;entryDy=0;" parent="1" source="O5RSDXi4QWW96VrOZAca-12" target="O5RSDXi4QWW96VrOZAca-2" edge="1">
          <mxGeometry width="50" height="50" relative="1" as="geometry">
            <mxPoint x="120" y="130" as="sourcePoint" />
            <mxPoint x="170" y="80" as="targetPoint" />
            <Array as="points">
              <mxPoint x="150" y="135" />
            </Array>
          </mxGeometry>
        </mxCell>
        <mxCell id="O5RSDXi4QWW96VrOZAca-17" value="Yes" style="text;html=1;align=center;verticalAlign=middle;whiteSpace=wrap;rounded=0;" parent="1" vertex="1">
          <mxGeometry x="410" y="400" width="60" height="30" as="geometry" />
        </mxCell>
        <mxCell id="O5RSDXi4QWW96VrOZAca-18" value="No" style="text;html=1;align=center;verticalAlign=middle;whiteSpace=wrap;rounded=0;" parent="1" vertex="1">
          <mxGeometry x="230" y="260" width="60" height="30" as="geometry" />
        </mxCell>
        <mxCell id="YDp8Jcg-k8SBNk6x0t7V-1" value="Amount &amp;lt; Balance ?" style="rhombus;whiteSpace=wrap;html=1;" vertex="1" parent="1">
          <mxGeometry x="360" y="440" width="130" height="130" as="geometry" />
        </mxCell>
        <mxCell id="YDp8Jcg-k8SBNk6x0t7V-2" value="Output&lt;div&gt;Your balance is insufficient&lt;/div&gt;" style="shape=parallelogram;perimeter=parallelogramPerimeter;whiteSpace=wrap;html=1;fixedSize=1;" vertex="1" parent="1">
          <mxGeometry x="590" y="260" width="190" height="60" as="geometry" />
        </mxCell>
        <mxCell id="YDp8Jcg-k8SBNk6x0t7V-3" value="" style="endArrow=classic;html=1;rounded=0;exitX=0.5;exitY=1;exitDx=0;exitDy=0;exitPerimeter=0;entryX=0.5;entryY=0;entryDx=0;entryDy=0;" edge="1" parent="1" source="O5RSDXi4QWW96VrOZAca-3" target="YDp8Jcg-k8SBNk6x0t7V-1">
          <mxGeometry width="50" height="50" relative="1" as="geometry">
            <mxPoint x="540" y="420" as="sourcePoint" />
            <mxPoint x="590" y="370" as="targetPoint" />
          </mxGeometry>
        </mxCell>
        <mxCell id="YDp8Jcg-k8SBNk6x0t7V-4" value="" style="endArrow=classic;html=1;rounded=0;exitX=0.5;exitY=1;exitDx=0;exitDy=0;entryX=0.5;entryY=0;entryDx=0;entryDy=0;" edge="1" parent="1" source="YDp8Jcg-k8SBNk6x0t7V-1" target="O5RSDXi4QWW96VrOZAca-4">
          <mxGeometry width="50" height="50" relative="1" as="geometry">
            <mxPoint x="460" y="600" as="sourcePoint" />
            <mxPoint x="510" y="550" as="targetPoint" />
          </mxGeometry>
        </mxCell>
        <mxCell id="YDp8Jcg-k8SBNk6x0t7V-5" value="" style="endArrow=classic;html=1;rounded=0;exitX=1;exitY=0.5;exitDx=0;exitDy=0;entryX=0.5;entryY=1;entryDx=0;entryDy=0;" edge="1" parent="1" source="YDp8Jcg-k8SBNk6x0t7V-1" target="YDp8Jcg-k8SBNk6x0t7V-2">
          <mxGeometry width="50" height="50" relative="1" as="geometry">
            <mxPoint x="670" y="470" as="sourcePoint" />
            <mxPoint x="720" y="420" as="targetPoint" />
            <Array as="points">
              <mxPoint x="685" y="505" />
            </Array>
          </mxGeometry>
        </mxCell>
        <mxCell id="YDp8Jcg-k8SBNk6x0t7V-7" value="Yes" style="text;html=1;align=center;verticalAlign=middle;whiteSpace=wrap;rounded=0;" vertex="1" parent="1">
          <mxGeometry x="410" y="570" width="60" height="30" as="geometry" />
        </mxCell>
        <mxCell id="YDp8Jcg-k8SBNk6x0t7V-8" value="No" style="text;html=1;align=center;verticalAlign=middle;whiteSpace=wrap;rounded=0;" vertex="1" parent="1">
          <mxGeometry x="550" y="480" width="60" height="30" as="geometry" />
        </mxCell>
        <mxCell id="YDp8Jcg-k8SBNk6x0t7V-9" value="" style="endArrow=classic;html=1;rounded=0;exitX=0.5;exitY=0;exitDx=0;exitDy=0;entryX=1;entryY=0.5;entryDx=0;entryDy=0;" edge="1" parent="1" source="YDp8Jcg-k8SBNk6x0t7V-2" target="O5RSDXi4QWW96VrOZAca-2">
          <mxGeometry width="50" height="50" relative="1" as="geometry">
            <mxPoint x="630" y="170" as="sourcePoint" />
            <mxPoint x="680" y="120" as="targetPoint" />
            <Array as="points">
              <mxPoint x="685" y="135" />
            </Array>
          </mxGeometry>
        </mxCell>
      </root>
    </mxGraphModel>
  </diagram>
</mxfile>
